<?xml version="1.0" encoding="UTF-8" standalone="no"?>
<!DOCTYPE svg PUBLIC "-//W3C//DTD SVG 1.1//EN" "http://www.w3.org/Graphics/SVG/1.1/DTD/svg11.dtd">
<svg version="1.1" xmlns="http://www.w3.org/2000/svg" xmlns:xlink="http://www.w3.org/1999/xlink" preserveAspectRatio="xMidYMid meet" viewBox="26.428614235475834 53.26219017913347 379.28965101113636 148.47443992331972" width="375.29" height="144.47"><defs><path d="M176.17 54.26L215.24 165.57L253.7 54.26L283.21 54.26L228.67 198.74L201.61 198.74L146.67 54.26L176.17 54.26Z" id="f2U9nEpMaH"></path><path d="M114.86 142.98L94.98 83.36L75.01 142.98L114.86 142.98ZM80.74 54.26L109.23 54.26L162.34 198.74L133.44 198.74L121.44 162.72L68.39 162.72L56.32 198.74L27.43 198.74L80.74 54.26Z" id="a1vN924VB2"></path><path d="M305.66 198.74L305.66 54.26L402.72 54.26L402.72 78.89L333.74 78.89L333.74 116.12L391.12 116.12L391.12 139.12L333.74 139.12L333.74 198.74L305.66 198.74Z" id="a2raZz6iuD"></path></defs><g><g><use xlink:href="#f2U9nEpMaH" opacity="1" fill="#ffffff" fill-opacity="1"></use><g><use xlink:href="#f2U9nEpMaH" opacity="1" fill-opacity="0" stroke="#000000" stroke-width="1" stroke-opacity="0"></use></g></g><g><use xlink:href="#a1vN924VB2" opacity="1" fill="#e01f26" fill-opacity="1"></use><g><use xlink:href="#a1vN924VB2" opacity="1" fill-opacity="0" stroke="#000000" stroke-width="1" stroke-opacity="0"></use></g></g><g><use xlink:href="#a2raZz6iuD" opacity="1" fill="#ffffff" fill-opacity="1"></use><g><use xlink:href="#a2raZz6iuD" opacity="1" fill-opacity="0" stroke="#000000" stroke-width="1" stroke-opacity="0"></use></g></g></g></svg>